<!-- from https://fffuel.co/llleaves/ -->

<svg xmlns="http://www.w3.org/2000/svg" version="1.1" xmlns:xlink="http://www.w3.org/1999/xlink" xmlns:svgjs="http://svgjs.dev/svgjs" viewBox="0 0 1422 800"><defs><filter id="llleaves-blur-2" x="-100%" y="-100%" width="400%" height="400%"><feGaussianBlur in="SourceGraphic" stdDeviation="2"></feGaussianBlur></filter><filter id="llleaves-blur-3" x="-100%" y="-100%" width="400%" height="400%"><feGaussianBlur in="SourceGraphic" stdDeviation="4"></feGaussianBlur></filter><filter id="llleaves-blur-4" x="-100%" y="-100%" width="400%" height="400%"><feGaussianBlur in="SourceGraphic" stdDeviation="12"></feGaussianBlur></filter></defs><g fill="hsl(330deg, 100%, 50%)"><path d="M155 40H205C233 40 255 62 255 90H205C177 90 155 68 155 40Z " transform="matrix(0.04201403861159898,0.2161434910664331,-0.2161434910664331,0.04201403861159898,210.43644900394037,17.959671821627282)" filter="url(#llleaves-blur-3)" opacity="0.34"></path><path d="M271 292H321C349 292 371 314 371 342H321C293 342 271 320 271 292Z " transform="matrix(-0.0771154483686651,0.2522332662222269,-0.2522332662222269,-0.0771154483686651,425.7120043187874,260.478718675532)" filter="url(#llleaves-blur-3)" opacity="0.40"></path><path d="M1175 422H1225C1253 422 1275 444 1275 472H1225C1197 472 1175 450 1175 422Z " transform="matrix(-0.2748172237544587,-0.36469477367545194,0.36469477367545194,-0.2748172237544587,1398.632535266285,1016.5943967706717)" opacity="0.70"></path><path d="M1180 274H1230C1258 274 1280 296 1280 324H1230C1202 324 1180 302 1180 274Z " transform="matrix(-0.2748172237544587,-0.36469477367545194,0.36469477367545194,-0.2748172237544587,1458.9814478890241,829.744921523389)" opacity="0.70"></path><path d="M796 54H846C874 54 896 76 896 104H846C818 104 796 82 796 54Z " transform="matrix(-0.3796212408434675,-0.026545703118223046,0.026545703118223046,-0.3796212408434675,1165.0624592072338,131.44774286465062)" filter="url(#llleaves-blur-2)" opacity="0.58"></path><path d="M1294 193H1344C1372 193 1394 215 1394 243H1344C1316 243 1294 221 1294 193Z " transform="matrix(0.045394940781475546,-0.5188665474130211,0.5188665474130211,0.045394940781475546,1169.8762922536582,905.4605426327387)" opacity="0.80"></path><path d="M811 716H861C889 716 911 738 911 766H861C833 766 811 744 811 716Z " transform="matrix(-0.3272616264196638,0.11268521474637701,-0.11268521474637701,-0.3272616264196638,1226.272004474396,886.4788952803403)" filter="url(#llleaves-blur-2)" opacity="0.53"></path><path d="M975 716H1025C1053 716 1075 738 1075 766H1025C997 766 975 744 975 716Z " transform="matrix(-0.33647844841239305,0.09648364248953699,-0.09648364248953699,-0.33647844841239305,1441.3847887074498,891.4347967218079)" filter="url(#llleaves-blur-2)" opacity="0.54"></path><path d="M406 696H456C484 696 506 718 506 746H456C428 746 406 724 406 696Z " transform="matrix(-0.3403509969301028,0.09119677477054867,-0.09119677477054867,-0.3403509969301028,676.9529292096925,924.8073394912341)" filter="url(#llleaves-blur-2)" opacity="0.54"></path><path d="M1307 529H1357C1385 529 1407 551 1407 579H1357C1329 579 1307 557 1307 529Z " transform="matrix(0.045394940781475546,-0.5188665474130211,0.5188665474130211,0.045394940781475546,1007.946998092724,1232.953107646532)" opacity="0.80"></path><path d="M1087 159H1137C1165 159 1187 181 1187 209H1137C1109 209 1087 187 1087 159Z " transform="matrix(-0.38274162758587593,-0.1243602933708911,0.1243602933708911,-0.38274162758587593,1549.2949365848967,395.8221130385043)" opacity="0.62"></path><path d="M7 560H57C85 560 107 582 107 610H57C29 610 7 588 7 560Z " transform="matrix(-0.33348198777132587,0.10195567537551622,-0.10195567537551622,-0.33348198777132587,135.6525433976426,774.2754893498213)" filter="url(#llleaves-blur-2)" opacity="0.53"></path><path d="M384 377H434C462 377 484 399 484 427H434C406 427 384 405 384 377Z " transform="matrix(-0.29373934810621527,0.15618398183816912,-0.15618398183816912,-0.29373934810621527,624.2688377770414,452.2993698209331)" filter="url(#llleaves-blur-2)" opacity="0.51"></path><path d="M455 41H505C533 41 555 63 555 91H505C477 91 455 69 455 41Z " transform="matrix(-0.3849255632949299,-0.09597272193961112,0.09597272193961112,-0.3849255632949299,693.0532098159254,139.87131175696896)" filter="url(#llleaves-blur-2)" opacity="0.61"></path><path d="M539 698H589C617 698 639 720 639 748H589C561 748 539 726 539 698Z " transform="matrix(-0.3794120379088785,-0.1456426358127123,0.1456426358127123,-0.3794120379088785,707.1740646357384,1083.098415901807)" opacity="0.62"></path><path d="M668 701H718C746 701 768 723 768 751H718C690 751 668 729 668 701Z " transform="matrix(-0.38443001237818175,-0.06778538337636265,0.06778538337636265,-0.38443001237818175,944.8085605562953,1053.7660942507882)" filter="url(#llleaves-blur-2)" opacity="0.60"></path><path d="M16 396H66C94 396 116 418 116 446H66C38 446 16 424 16 396Z " transform="matrix(-0.2681789511786667,0.18088898660788005,-0.18088898660788005,-0.2681789511786667,159.8540741397095,521.9646653300986)" filter="url(#llleaves-blur-2)" opacity="0.50"></path><path d="M1296 696H1346C1374 696 1396 718 1396 746H1346C1318 746 1296 724 1296 696Z " transform="matrix(0.045394940781475546,-0.5188665474130211,0.5188665474130211,0.045394940781475546,910.7956290233458,1386.6646205144825)" opacity="0.80"></path><path d="M20 220H70C98 220 120 242 120 270H70C42 270 20 248 20 220Z " transform="matrix(-0.2681789511786667,0.18088898660788005,-0.18088898660788005,-0.2681789511786667,133.0903283014373,298.04161397622175)" filter="url(#llleaves-blur-2)" opacity="0.50"></path><path d="M1295 49H1345C1373 49 1395 71 1395 99H1345C1317 99 1295 77 1295 49Z " transform="matrix(-0.11869038292440534,-0.47604112482727323,0.47604112482727323,-0.11869038292440534,1469.411521796107,723.0584012290885)" opacity="0.75"></path><path d="M631 40H681C709 40 731 62 731 90H681C653 90 631 68 631 40Z " transform="matrix(-0.27458373981625533,-0.36438493002432765,0.36438493002432765,-0.27458373981625533,844.3065063632885,330.99408043462375)" opacity="0.70"></path><path d="M225 433H275C303 433 325 455 325 483H275C247 483 225 461 225 433Z " transform="matrix(-0.04853671345771531,0.24969974414088952,-0.24969974414088952,-0.04853671345771531,402.71007901739915,411.562385124889)" filter="url(#llleaves-blur-3)" opacity="0.39"></path><path d="M1035 292H1085C1113 292 1135 314 1135 342H1085C1057 342 1035 320 1035 292Z " transform="matrix(-0.3716091464846983,0.012976877345417163,-0.012976877345417163,-0.3716091464846983,1492.309594054395,420.72018751587166)" filter="url(#llleaves-blur-2)" opacity="0.57"></path><path d="M18 59H68C96 59 118 81 118 109H68C40 109 18 87 18 59Z " transform="matrix(-0.23529321736718276,0.20453727335540262,-0.20453727335540262,-0.23529321736718276,101.18106974282225,89.85609567067597)" filter="url(#llleaves-blur-2)" opacity="0.48"></path><path d="M1136 710H1186C1214 710 1236 732 1236 760H1186C1158 760 1136 738 1136 710Z " transform="matrix(-0.33067707964718207,-0.28745319983709555,0.28745319983709555,-0.33067707964718207,1366.9049145812928,1318.9671485474744)" opacity="0.67"></path><path d="M117 522H167C195 522 217 544 217 572H167C139 572 117 550 117 522Z " transform="matrix(-0.08208201721998296,0.25262247309607727,-0.25262247309607727,-0.08208201721998296,318.89218965929143,549.7109104122858)" filter="url(#llleaves-blur-3)" opacity="0.41"></path><path d="M748 578H798C826 578 848 600 848 628H798C770 628 748 606 748 578Z " transform="matrix(-0.37052649664157156,0.01941847085450998,-0.01941847085450998,-0.37052649664157156,1105.3894822452437,810.9315377329688)" filter="url(#llleaves-blur-2)" opacity="0.57"></path><path d="M475 562H525C553 562 575 584 575 612H525C497 612 475 590 475 562Z " transform="matrix(-0.3833015702405046,-0.047063514995374305,0.047063514995374305,-0.3833015702405046,698.6070410739802,836.7063671037477)" filter="url(#llleaves-blur-2)" opacity="0.59"></path><path d="M968 44H1018C1046 44 1068 66 1068 94H1018C990 94 968 72 968 44Z " transform="matrix(-0.2265735126328876,0.2112832186493698,-0.2112832186493698,-0.2265735126328876,1263.230377947086,-130.45274421338922)" filter="url(#llleaves-blur-2)" opacity="0.47"></path><path d="M512 283H562C590 283 612 305 612 333H562C534 333 512 311 512 283Z " transform="matrix(-0.38475226267821033,-0.10309405807067347,0.10309405807067347,-0.38475226267821033,746.4778017393868,484.4425575406072)" filter="url(#llleaves-blur-2)" opacity="0.61"></path><path d="M1172 572H1222C1250 572 1272 594 1272 622H1222C1194 622 1172 600 1172 572Z " transform="matrix(-0.2748172237544587,-0.36469477367545194,0.36469477367545194,-0.2748172237544587,1340.1038675437037,1206.722896012814)" opacity="0.70"></path><path d="M536 154H586C614 154 636 176 636 204H586C558 204 536 182 536 154Z " transform="matrix(-0.3794120379088785,-0.1456426358127123,0.1456426358127123,-0.3794120379088785,782.2654224041273,332.2613393719386)" opacity="0.62"></path><path d="M785 278H835C863 278 885 300 885 328H835C807 328 785 306 785 278Z " transform="matrix(-0.3425864811881809,0.08541640315572205,-0.08541640315572205,-0.3425864811881809,1146.9408819483149,335.4810071649909)" filter="url(#llleaves-blur-2)" opacity="0.54"></path><path d="M1144 43H1194C1222 43 1244 65 1244 93H1194C1166 93 1144 71 1144 43Z " transform="matrix(-0.37830459861764515,-0.013210687685994905,0.013210687685994905,-0.37830459861764515,1644.7973639868205,109.49827380307781)" filter="url(#llleaves-blur-2)" opacity="0.58"></path><path d="M302 53H352C380 53 402 75 402 103H352C324 103 302 81 302 53Z " transform="matrix(0.00816945440371201,0.23394256548792666,-0.23394256548792666,0.00816945440371201,367.37187215795166,-4.985000495239717)" filter="url(#llleaves-blur-3)" opacity="0.36"></path><path d="M519 428H569C597 428 619 450 619 478H569C541 478 519 456 519 428Z " transform="matrix(-0.3794120379088785,-0.1456426358127123,0.1456426358127123,-0.3794120379088785,718.9093355469931,707.7443129501552)" opacity="0.62"></path><path d="M884 608H934C962 608 984 630 984 658H934C906 658 884 636 884 608Z " transform="matrix(-0.3097116454630827,0.1378925087342719,-0.1378925087342719,-0.3097116454630827,1310.5566348913135,700.2558684203213)" filter="url(#llleaves-blur-2)" opacity="0.52"></path></g><g fill="none" stroke-width="3" stroke="hsl(330deg, 100%, 50%)"><path d="M1040 444H1090C1118 444 1140 466 1140 494H1090C1062 494 1040 472 1040 444Z " transform="matrix(-0.3716091464846983,0.012976877345417163,-0.012976877345417163,-0.3716091464846983,1501.1401251433217,629.1398933948187)" filter="url(#llleaves-blur-2)" opacity="0.57"></path><path d="M375 193H425C453 193 475 215 475 243H425C397 243 375 221 375 193Z " transform="matrix(-0.29373934810621527,0.15618398183816912,-0.15618398183816912,-0.29373934810621527,583.8873309858624,215.65698560593304)" filter="url(#llleaves-blur-2)" opacity="0.51"></path><path d="M619 535H669C697 535 719 557 719 585H669C641 585 619 563 619 535Z " transform="matrix(-0.38135690356062474,-0.13880256152799408,0.13880256152799408,-0.38135690356062474,846.3983340263812,866.4187796561779)" opacity="0.62"></path><path d="M1030 588H1080C1108 588 1130 610 1130 638H1080C1052 638 1030 616 1030 588Z " transform="matrix(-0.3716091464846983,0.012976877345417163,-0.012976877345417163,-0.3716091464846983,1489.2927040162147,826.7813792620695)" filter="url(#llleaves-blur-2)" opacity="0.57"></path><path d="M761 436H811C839 436 861 458 861 486H811C783 486 761 464 761 436Z " transform="matrix(-0.35713479957243166,0.05656459535069508,-0.05656459535069508,-0.35713479957243166,1126.7126009099125,579.7652557734773)" filter="url(#llleaves-blur-2)" opacity="0.55"></path><path d="M647 351H697C725 351 747 373 747 401H697C669 401 647 379 647 351Z " transform="matrix(-0.38355929180160514,-0.10998385708902637,0.10998385708902637,-0.38355929180160514,922.986896120245,596.8770421084549)" filter="url(#llleaves-blur-2)" opacity="0.61"></path><path d="M282 709H332C360 709 382 731 382 759H332C304 759 282 737 282 709Z " transform="matrix(-0.1215148040387058,0.24914226952931381,-0.24914226952931381,-0.1215148040387058,555.2133407753666,740.4766326806779)" filter="url(#llleaves-blur-3)" opacity="0.42"></path><path d="M686 185H736C764 185 786 207 786 235H736C708 235 686 213 686 185Z " transform="matrix(-0.38443001237818175,-0.06778538337636265,0.06778538337636265,-0.38443001237818175,1004.7055586013056,340.6203447644211)" filter="url(#llleaves-blur-2)" opacity="0.60"></path><path d="M349 528H399C427 528 449 550 449 578H399C371 578 349 556 349 528Z " transform="matrix(-0.236047689178675,0.20519312569518902,-0.20519312569518902,-0.236047689178675,606.6548264917308,601.6623149634269)" filter="url(#llleaves-blur-2)" opacity="0.48"></path><path d="M142 699H192C220 699 242 721 242 749H192C164 749 142 727 142 699Z " transform="matrix(-0.05304598099791276,0.2495617193896026,-0.2495617193896026,-0.05304598099791276,382.8675131896715,714.4894401196851)" filter="url(#llleaves-blur-3)" opacity="0.39"></path><path d="M184 174H234C262 174 284 196 284 224H234C206 224 184 202 184 174Z " transform="matrix(-0.03476547492863448,0.24736920769151327,-0.24736920769151327,-0.03476547492863448,291.3615934639116,148.03393491098416)" filter="url(#llleaves-blur-3)" opacity="0.38"></path><path d="M128 321H178C206 321 228 343 228 371H178C150 371 128 349 128 321Z " transform="matrix(-0.05304598099791276,0.2495617193896026,-0.2495617193896026,-0.05304598099791276,273.7905395264309,319.93192337392856)" filter="url(#llleaves-blur-3)" opacity="0.39"></path><path d="M1309 362H1359C1387 362 1409 384 1409 412H1359C1331 412 1309 390 1309 362Z " transform="matrix(0.045394940781475546,-0.5188665474130211,0.5188665474130211,0.045394940781475546,1096.5069216291356,1074.5717958518646)" opacity="0.80"></path><path d="M903 181H953C981 181 1003 203 1003 231H953C925 231 903 209 903 181Z " transform="matrix(-0.3126497005070737,0.13271192416072825,-0.13271192416072825,-0.3126497005070737,1278.2938209603512,143.9313745792832)" filter="url(#llleaves-blur-2)" opacity="0.52"></path><path d="M907 345H957C985 345 1007 367 1007 395H957C929 395 907 373 907 345Z " transform="matrix(-0.3126497005070737,0.13271192416072825,-0.13271192416072825,-0.3126497005070737,1305.309175324739,358.6750777658003)" filter="url(#llleaves-blur-2)" opacity="0.52"></path><path d="M900 484H950C978 484 1000 506 1000 534H950C922 534 900 512 900 484Z " transform="matrix(-0.3126497005070737,0.13271192416072825,-0.13271192416072825,-0.3126497005070737,1314.5675848795306,542.0623696054088)" filter="url(#llleaves-blur-2)" opacity="0.52"></path><path d="M231 587H281C309 587 331 609 331 637H281C253 637 231 615 231 587Z " transform="matrix(-0.04853671345771531,0.24969974414088952,-0.24969974414088952,-0.04853671345771531,447.4550598958424,571.5388405325318)" filter="url(#llleaves-blur-3)" opacity="0.39"></path><path d="M15 704H65C93 704 115 726 115 754H65C37 754 15 732 15 704Z " transform="matrix(-0.2681789511786667,0.18088898660788005,-0.18088898660788005,-0.2681789511786667,214.2997030637579,912.7446712797358)" filter="url(#llleaves-blur-2)" opacity="0.50"></path></g></svg>